<svg xmlns="http://www.w3.org/2000/svg" viewBox="0 0 960 420" role="img" aria-label="Egito — dádiva do Nilo">
  <defs>
    <linearGradient id="eSky" x1="0" y1="0" x2="0" y2="1">
      <stop offset="0" stop-color="#ffe9b0"/><stop offset=".55" stop-color="#f2b95e"/><stop offset="1" stop-color="#c97e2e"/>
    </linearGradient>
    <linearGradient id="eSand" x1="0" y1="0" x2="0" y2="1">
      <stop offset="0" stop-color="#d9a447"/><stop offset="1" stop-color="#a5701f"/>
    </linearGradient>
    <linearGradient id="ePyr" x1="0" y1="0" x2="1" y2="0">
      <stop offset="0" stop-color="#e8c06a"/><stop offset=".52" stop-color="#e8c06a"/><stop offset=".52" stop-color="#a5701f"/><stop offset="1" stop-color="#8a5a14"/>
    </linearGradient>
    <linearGradient id="eNile" x1="0" y1="0" x2="0" y2="1">
      <stop offset="0" stop-color="#7fb3c9"/><stop offset="1" stop-color="#39758f"/>
    </linearGradient>
    <radialGradient id="eSun" cx=".5" cy=".5" r=".5">
      <stop offset="0" stop-color="#fff7d6"/><stop offset=".6" stop-color="#ffdf8e"/><stop offset="1" stop-color="#ffdf8e" stop-opacity="0"/>
    </radialGradient>
  </defs>
  <rect width="960" height="420" fill="url(#eSky)"/>
  <circle cx="250" cy="120" r="160" fill="url(#eSun)"/>
  <circle cx="250" cy="120" r="56" fill="#fff0bf"/>
  <path d="M0 300 H960 V420 H0 Z" fill="url(#eSand)"/>
  <!-- Pirâmides -->
  <path d="M330 300 L520 96 L710 300 Z" fill="url(#ePyr)"/>
  <path d="M170 300 L300 172 L430 300 Z" fill="url(#ePyr)" opacity=".92"/>
  <path d="M640 300 L750 200 L860 300 Z" fill="url(#ePyr)" opacity=".88"/>
  <!-- Nilo -->
  <path d="M0 340 Q240 322 480 338 T960 332 L960 372 Q700 388 480 372 T0 380 Z" fill="url(#eNile)"/>
  <path d="M0 352 Q240 336 480 350 T960 346" stroke="#cfe7ef" stroke-opacity=".5" stroke-width="3" fill="none"/>
  <!-- Felucca -->
  <g transform="translate(690,338)">
    <path d="M-38 10 Q0 26 38 10 L28 20 H-28 Z" fill="#5a3414"/>
    <path d="M0 8 L0 -46 L34 4 Z" fill="#f6ead0"/>
    <line x1="0" y1="8" x2="0" y2="-46" stroke="#5a3414" stroke-width="3"/>
  </g>
  <!-- Palmeiras -->
  <g stroke="#4c3a10" stroke-width="6" fill="none">
    <path d="M92 396 q6 -60 -8 -92"/><path d="M136 400 q-4 -52 10 -84"/>
  </g>
  <g fill="#6a7a1e">
    <path d="M84 302 q-40 -18 -64 2 q30 4 40 14 q-34 4 -50 24 q34 -4 48 4 q-20 14 -22 32 q22 -16 40 -16 q14 2 22 -8 q10 10 24 8 q18 2 38 16 q-4 -20 -22 -32 q16 -8 46 -4 q-16 -20 -48 -24 q10 -10 38 -14 q-24 -20 -62 -2 q4 -22 -14 -34 q-16 12 -14 34 Z"/>
    <path d="M146 318 q-30 -12 -48 2 q22 2 30 10 q-26 4 -38 18 q26 -2 36 4 q-14 10 -16 24 q16 -12 30 -12 q10 2 16 -6 q8 8 18 6 q14 2 28 12 q-2 -14 -16 -24 q12 -6 34 -4 q-12 -14 -36 -18 q8 -8 28 -10 q-18 -14 -46 -2 q2 -16 -10 -26 q-12 10 -10 26 Z"/>
  </g>
  <!-- Ankh -->
  <g transform="translate(884,120)" stroke="#7c5510" stroke-width="10" fill="none" stroke-linecap="round">
    <ellipse cx="0" cy="-26" rx="20" ry="28"/>
    <line x1="0" y1="2" x2="0" y2="72"/>
    <line x1="-30" y1="20" x2="30" y2="20"/>
  </g>
  <rect width="960" height="420" fill="none" stroke="#5b3c0c" stroke-opacity=".35" stroke-width="10"/>
</svg>
